<svg version="1.2" xmlns="http://www.w3.org/2000/svg" viewBox="0 0 512 512" width="512" height="512"><style>.a{fill:#fff}</style><path class="a" d="m33.2 255.5c16.1 0.1 29.7 12.2 31.8 28.2 15.3 105 112.9 177.6 217.9 162.3 105.1-15.4 177.7-113 162.4-218-15.4-105-113-177.7-218-162.3-35.8 5.2-69.4 20.5-96.9 43.9l24.1 24.1c8.3 8.4 8.3 21.9 0 30.2-4 4-9.5 6.3-15.2 6.3h-97.8c-11.8 0-21.3-9.6-21.3-21.4v-97.8c0-11.8 9.5-21.3 21.3-21.3 5.7 0 11.1 2.2 15.1 6.2l28.4 28.4c105.7-93.6 267.4-83.9 361 21.9 93.7 105.7 83.9 267.3-21.8 361-105.7 93.6-267.4 83.9-361-21.9-33-37.2-54.4-83.2-61.6-132.4-2.9-17.6 9.1-34.2 26.7-37q2.5-0.4 4.9-0.4z"/><path class="a" d="m176.5 341h37.3v-153.3h-58.1v33.4h20.8zm61.9-78.8c0 45.4 15.3 78.2 59 78.2 43.7 0 59-32.8 59-78.2 0-44.9-15.3-77.7-59-77.7-43.7 0-59 32.8-59 77.7zm82.8 0c0 24.4-2.6 44.6-23.8 44.6-21.2 0-23.7-20.2-23.7-44.6 0-23.5 2.5-44.1 23.7-44.1 21.2 0 23.8 20.6 23.8 44.1z"/></svg>