<svg version="1.2" xmlns="http://www.w3.org/2000/svg" viewBox="0 0 512 512" width="512" height="512"><style>.a{fill:#fff}.b{fill:#fff;stroke:#000;stroke-width:15.000000000000002}</style><path class="a" d="m33.2 255.5c16.1 0.1 29.7 12.2 31.8 28.2 15.3 105 112.9 177.6 217.9 162.3 105.1-15.4 177.7-113 162.4-218-15.4-105-113-177.7-218-162.3-35.8 5.2-69.4 20.5-96.9 43.9l24.1 24.1c8.3 8.4 8.3 21.9 0 30.2-4 4-9.5 6.3-15.2 6.3h-97.8c-11.8 0-21.3-9.6-21.3-21.4v-97.8c0-11.8 9.5-21.3 21.3-21.3 5.7 0 11.1 2.2 15.1 6.2l28.4 28.4c105.7-93.6 267.4-83.9 361 21.9 93.7 105.7 83.9 267.3-21.8 361-105.7 93.6-267.4 83.9-361-21.9-33-37.2-54.4-83.2-61.6-132.4-2.9-17.6 9.1-34.2 26.7-37q2.5-0.4 4.9-0.4z"/><path class="b" d="m272.2 504h48.1v-197.1h-74.8v42.9h26.7zm79.6-101.2c0 58.3 19.8 100.4 75.9 100.4 56.2 0 75.9-42.1 75.9-100.4 0-57.8-19.7-99.9-75.9-99.9-56.1 0-75.9 42.1-75.9 99.9zm106.4 0c0 31.3-3.2 57.2-30.5 57.2-27.3 0-30.5-25.9-30.5-57.2 0-30.3 3.2-56.7 30.5-56.7 27.3 0 30.5 26.4 30.5 56.7z"/></svg>