<?xml version="1.0"?>
<svg xmlns="http://www.w3.org/2000/svg" xmlns:xlink="http://www.w3.org/1999/xlink" xmlns:svgjs="http://svgjs.com/svgjs" version="1.1" width="512" height="512" x="0" y="0" viewBox="0 0 24 24" style="enable-background:new 0 0 512 512" xml:space="preserve"><g><path xmlns="http://www.w3.org/2000/svg" d="M22.5,15.5A1.5,1.5,0,0,0,21,17v1.5A2.5,2.5,0,0,1,18.5,21H17a1.5,1.5,0,0,0,0,3h1.5A5.506,5.506,0,0,0,24,18.5V17A1.5,1.5,0,0,0,22.5,15.5Z" fill="#ffffff" data-original="#000000"/><path xmlns="http://www.w3.org/2000/svg" d="M7,0H5.5A5.506,5.506,0,0,0,0,5.5V7A1.5,1.5,0,0,0,3,7V5.5A2.5,2.5,0,0,1,5.5,3H7A1.5,1.5,0,0,0,7,0Z" fill="#ffffff" data-original="#000000"/><path xmlns="http://www.w3.org/2000/svg" d="M7,21H5.5A2.5,2.5,0,0,1,3,18.5V17a1.5,1.5,0,0,0-3,0v1.5A5.506,5.506,0,0,0,5.5,24H7a1.5,1.5,0,0,0,0-3Z" fill="#ffffff" data-original="#000000"/><path xmlns="http://www.w3.org/2000/svg" d="M18.5,0H17a1.5,1.5,0,0,0,0,3h1.5A2.5,2.5,0,0,1,21,5.5V7a1.5,1.5,0,0,0,3,0V5.5A5.506,5.506,0,0,0,18.5,0Z" fill="#ffffff" data-original="#000000"/></g></svg>
