<svg version="1.2" xmlns="http://www.w3.org/2000/svg" viewBox="0 0 512 512" width="512" height="512"><style>.a{fill:#fff}.b{fill:#fff;stroke:#000;stroke-width:15.000000000000002}</style><path class="a" d="m483.2 255.9c17.6 2.8 29.6 19.4 26.7 37-7.2 49.2-28.6 95.2-61.6 132.4-93.6 105.8-255.3 115.5-361 21.9-105.7-93.7-115.5-255.3-21.8-361 93.6-105.8 255.3-115.5 361-21.9l28.4-28.4c4-4 9.4-6.2 15.1-6.2 11.8 0 21.3 9.5 21.3 21.3v97.8c0 11.8-9.5 21.4-21.3 21.4h-97.8c-5.7 0-11.2-2.3-15.2-6.3-8.3-8.3-8.3-21.8 0-30.2l24.1-24.1c-27.5-23.4-61.1-38.7-96.9-43.9-105-15.4-202.6 57.3-218 162.3-15.3 105 57.3 202.6 162.4 218 105 15.3 202.6-57.3 217.9-162.3 2.1-16 15.7-28.1 31.8-28.2q2.4 0 4.9 0.4z"/><path class="b" d="m35.2 504h48.1v-197.1h-74.8v42.9h26.7zm79.6-101.2c0 58.3 19.8 100.4 75.9 100.4 56.2 0 75.9-42.1 75.9-100.4 0-57.8-19.7-99.9-75.9-99.9-56.1 0-75.9 42.1-75.9 99.9zm106.4 0c0 31.3-3.2 57.2-30.5 57.2-27.3 0-30.5-25.9-30.5-57.2 0-30.3 3.2-56.7 30.5-56.7 27.3 0 30.5 26.4 30.5 56.7z"/></svg>