<svg version="1.2" xmlns="http://www.w3.org/2000/svg" viewBox="0 0 24 24" width="24" height="24"><style>.a{fill:#4a44fe}.b{fill:#fff}</style><path class="a" d="m12 24c-6.6 0-12-5.4-12-12 0-6.6 5.4-12 12-12 6.6 0 12 5.4 12 12 0 6.6-5.4 12-12 12z"/><path class="b" d="m10.5 7.9q0.3 0.1 0.4 0.3 0.2 0.1 0.3 0.4 0.1 0.2 0.1 0.4v6c0 0.3-0.1 0.6-0.4 0.8-0.2 0.3-0.5 0.4-0.8 0.4-0.3 0-0.7-0.1-0.9-0.4-0.2-0.2-0.4-0.5-0.4-0.8v-6q0.1-0.2 0.1-0.4 0.1-0.3 0.3-0.4 0.2-0.2 0.4-0.3 0.2-0.1 0.5-0.1 0.2 0 0.4 0.1z"/><path class="b" d="m14.4 7.9q0.2 0.1 0.4 0.3 0.2 0.1 0.3 0.4 0 0.2 0 0.4v6c0 0.3-0.1 0.6-0.3 0.8-0.2 0.3-0.6 0.4-0.9 0.4-0.3 0-0.6-0.1-0.8-0.4-0.3-0.2-0.4-0.5-0.4-0.8v-6q0-0.2 0.1-0.4 0.1-0.3 0.3-0.4 0.1-0.2 0.4-0.3 0.2-0.1 0.4-0.1 0.3 0 0.5 0.1z"/></svg>