<svg version="1.2" xmlns="http://www.w3.org/2000/svg" viewBox="0 0 24 24" width="24" height="24"><style>.a{fill:#fff}</style><path class="a" d="m7.6 0.1q0.2 0.1 0.5 0.3 0.2 0.3 0.3 0.5 0.1 0.3 0.1 0.6v1.5q0 1.1-0.4 2.1-0.4 1-1.2 1.8-0.8 0.8-1.8 1.2-1 0.4-2.1 0.4h-1.5c-0.4 0-0.8-0.2-1.1-0.4-0.2-0.3-0.4-0.7-0.4-1.1 0-0.4 0.2-0.8 0.4-1.1 0.3-0.2 0.7-0.4 1.1-0.4h1.5q0.5 0 1-0.2 0.4-0.2 0.8-0.5 0.3-0.4 0.5-0.8 0.2-0.5 0.2-1v-1.5q0-0.3 0.1-0.6 0.1-0.2 0.3-0.5 0.3-0.2 0.5-0.3 0.3-0.1 0.6-0.1 0.3 0 0.6 0.1z"/><path class="a" d="m23.1 15.4c0.2 0.3 0.4 0.7 0.4 1.1 0 0.4-0.2 0.8-0.4 1.1-0.3 0.2-0.7 0.4-1.1 0.4h-1.5q-0.5 0-1 0.2-0.4 0.2-0.8 0.5-0.3 0.4-0.5 0.8-0.2 0.5-0.2 1v1.5c0 0.4-0.2 0.8-0.4 1.1-0.3 0.2-0.7 0.4-1.1 0.4-0.4 0-0.8-0.2-1.1-0.4-0.2-0.3-0.4-0.7-0.4-1.1v-1.5q0-1.1 0.4-2.1 0.4-1 1.2-1.8 0.8-0.8 1.8-1.2 1-0.4 2.1-0.4h1.5c0.4 0 0.8 0.2 1.1 0.4z"/><path class="a" d="m23.1 5.9c0.2 0.3 0.4 0.7 0.4 1.1 0 0.4-0.2 0.8-0.4 1.1-0.3 0.2-0.7 0.4-1.1 0.4h-1.5q-1.1 0-2.1-0.4-1-0.4-1.8-1.2-0.8-0.8-1.2-1.8-0.4-1-0.4-2.1v-1.5c0-0.4 0.2-0.8 0.4-1.1 0.3-0.2 0.7-0.4 1.1-0.4 0.4 0 0.8 0.2 1.1 0.4 0.2 0.3 0.4 0.7 0.4 1.1v1.5q0 0.5 0.2 1 0.2 0.4 0.5 0.8 0.4 0.3 0.8 0.5 0.5 0.2 1 0.2h1.5c0.4 0 0.8 0.2 1.1 0.4z"/><path class="a" d="m5.1 15.4q1 0.4 1.8 1.2 0.8 0.8 1.2 1.8 0.4 1 0.4 2.1v1.5c0 0.4-0.2 0.8-0.4 1.1-0.3 0.2-0.7 0.4-1.1 0.4-0.4 0-0.8-0.2-1.1-0.4-0.2-0.3-0.4-0.7-0.4-1.1v-1.5q0-0.5-0.2-1-0.2-0.4-0.5-0.8-0.4-0.3-0.8-0.5-0.5-0.2-1-0.2h-1.5c-0.4 0-0.8-0.2-1.1-0.4-0.2-0.3-0.4-0.7-0.4-1.1 0-0.4 0.2-0.8 0.4-1.1 0.3-0.2 0.7-0.4 1.1-0.4h1.5q1.1 0 2.1 0.4z"/></svg>