<svg version="1.2" xmlns="http://www.w3.org/2000/svg" viewBox="0 0 24 24" width="24" height="24"><style>.a{fill:#fff}</style><path fill-rule="evenodd" class="a" d="m18.4 13.4q-0.2 0.7-0.7 1.3-0.4 0.5-1 0.9-0.6 0.4-1.3 0.6v6.1q0 0.3-0.1 0.6-0.1 0.3-0.3 0.5-0.2 0.2-0.5 0.3-0.3 0.1-0.6 0.1 0 0-0.1 0 0 0 0 0-0.1 0-0.1 0 0 0-0.1 0-1.1-0.2-2.1-0.6-1-0.4-2-1-0.9-0.6-1.8-1.3-0.8-0.8-1.4-1.7h-0.8q-1.1 0-2.1-0.4-1-0.4-1.8-1.2-0.8-0.8-1.2-1.8-0.4-1-0.4-2.1v-3.4q0-1.1 0.4-2.1 0.4-1 1.2-1.8 0.8-0.8 1.8-1.2 1-0.4 2.1-0.4h0.8q0.6-0.9 1.4-1.7 0.9-0.7 1.8-1.3 1-0.6 2-1 1-0.4 2.1-0.6 0.4-0.1 0.7 0 0.3 0.1 0.6 0.3 0.2 0.2 0.4 0.5 0.1 0.3 0.1 0.7v6.1q0.7 0.2 1.3 0.6 0.6 0.4 1 0.9 0.5 0.6 0.7 1.3 0.2 0.7 0.3 1.4-0.1 0.7-0.3 1.4zm-6-9.7q-0.6 0.2-1.2 0.6-0.6 0.3-1.1 0.8-0.5 0.4-1 0.9-0.4 0.5-0.8 1.1-0.1 0.1-0.3 0.3-0.1 0.1-0.3 0.2-0.1 0.1-0.3 0.1-0.2 0.1-0.4 0.1h-1.5q-0.5 0-1 0.2-0.4 0.2-0.8 0.5-0.3 0.4-0.5 0.8-0.2 0.5-0.2 1v3.4q0 0.5 0.2 1 0.2 0.4 0.5 0.8 0.4 0.3 0.8 0.5 0.5 0.2 1 0.2h1.5q0.2 0 0.4 0.1 0.2 0 0.3 0.1 0.2 0.1 0.3 0.2 0.2 0.2 0.3 0.3 0.4 0.6 0.8 1.1 0.5 0.5 1 0.9 0.5 0.5 1.1 0.8 0.6 0.4 1.2 0.6z"/></svg>