<svg version="1.2" xmlns="http://www.w3.org/2000/svg" viewBox="0 0 24 24" width="24" height="24"><style>.a{fill:#fff}</style><path class="a" d="m20 16.1l-2.9-0.1c-2 2.7-3.9 3.7-6.6 3.7-4.2 0-7.6-3.4-7.6-7.6 0-4.3 3.3-7.7 7.6-7.6 2.8 0 5.2 1.3 6.6 3.9h2.9c-1.5-3.9-5.2-6.3-9.5-6.3-5.7 0-10.2 4.3-10.2 9.9 0 5.7 4.5 10.1 10.3 10.1 4 0 7.1-1.7 9.4-6z"/><path class="a" d="m21.3 14.2c-0.6 0.4-1.3 0-1.3-0.7v-2.6c0-0.7 0.7-1.1 1.3-0.8l2.3 1.3c0.5 0.4 0.5 1.2 0 1.5z"/><path class="a" d="m15.3 14.2c-0.6 0.4-1.3 0-1.3-0.7v-2.6c0-0.7 0.7-1.1 1.3-0.8l2.3 1.3c0.5 0.4 0.5 1.2 0 1.5z"/></svg>