<svg version="1.2" xmlns="http://www.w3.org/2000/svg" viewBox="0 0 1280 544" width="1280" height="544"><style>.a{fill:#fff}.b{fill:#dc6758}</style><path class="a" d="m69.9 164.4c22-0.5 44.1-0.5 66.1 0l-0.8 1.5c1.3 0.1 4 0.4 5.4 0.5-0.1 0.7-0.2 2.1-0.3 2.8l2.2 0.3c0 0.4-0.1 1.3-0.1 1.7 1.7 4.1 1.9 8.7 0.1 12.7 0 0.4-0.1 1.3-0.1 1.7l-1.9 0.2c-0.1 0.5-0.1 1.4-0.1 1.9-1.3 1.1-3.9 3.3-5.2 4.4 0.2-0.8 0.6-2.5 0.8-3.2-1.6 4.2-6 3-9.3 3.3-18.2-0.2-36.4-0.2-54.6 0.1l0.2 1c-0.7 0.6-2 1.8-2.6 2.3l-1.3-0.3 0.5 2.8c-0.5 0.1-1.6 0.3-2.2 0.4l0.4 2-2.1-0.1c0.2 0.7 0.5 2.2 0.7 2.9l-2.2 0.4c0.2 0.7 0.4 2.2 0.5 2.9l-2.1 0.3c0.1 0.8 0.3 2.3 0.4 3l-2.2 0.4c0.2 0.8 0.5 2.2 0.7 3l-2.2 0.1c0.1 0.8 0.4 2.3 0.5 3l-2.2 0.4c0.2 0.7 0.5 2.2 0.7 2.9l-2.1 0.4c0.1 0.7 0.3 2.2 0.4 2.9l-2.2 0.3c0.2 0.8 0.6 2.3 0.7 3l-2.3 0.2c0.2 0.8 0.5 2.3 0.6 3l-2.2 0.4c0.1 0.6 0.4 1.7 0.5 2.3q-1.9 2.4-3.8 4.7c0.1 0.6 0.3 1.8 0.4 2.3l-2 0.4c0.1 0.8 0.4 2.2 0.6 3l-2.3 0.3c0.2 0.7 0.5 2.2 0.6 2.9l-2.2 0.3c0.2 0.7 0.5 2.2 0.6 2.9l-2.1 0.4c0.1 0.8 0.4 2.3 0.5 3l-2.3 0.2c0.1 0.7 0.4 2.2 0.6 3l-2.1 0.4c0.2 0.8 0.6 2.2 0.8 3l-1.9-0.1q-0.3 4.2-0.7 8.3l-1-0.2q0 5 0 10h1q0.3 2.8 0.5 5.7c1.1 2.2 2.2 4.4 3.3 6.6 0 0.3 0.2 0.9 0.3 1.2 0.5 1 1.5 3.1 2 4.1l1 0.4c0.1 0.5 0.1 1.4 0.1 1.9 2.2 3.9 4.2 7.9 6.3 11.8 0.1 0.4 0.1 1.1 0.2 1.5 0.5 1 1.5 3.1 2 4.1l1.4 0.3c-0.2 0.8-0.4 2.2-0.6 3l2.2 0.3c-0.1 0.7-0.4 2.1-0.5 2.9l2.1 0.3c-0.1 0.7-0.4 2.2-0.6 3l2.2 0.3c-0.1 0.8-0.4 2.2-0.5 3l2.2 0.3c-0.2 0.8-0.5 2.2-0.6 3l2.2 0.2c-0.2 0.7-0.5 2.2-0.6 3l2.2 0.3c-0.2 0.7-0.5 2.2-0.6 3l2.2 0.3c-0.1 0.7-0.4 2.2-0.6 3l2.2 0.3c-0.1 0.7-0.4 2.1-0.6 2.8l2.1 0.2c0 0.5 0 1.6 0 2.1q2.2 2.2 4.3 4.4c0.6-0.1 1.7-0.4 2.2-0.5 0 0.5-0.2 1.4-0.3 1.9 20.8 0.7 41.5 0.1 62.2 0.5l0.2 1.8c0.7-0.2 2.2-0.7 3-0.9l-0.4 1.4c0.7 0.7 2 2.1 2.7 2.7l1.2-0.3c0 0.5 0 1.4 0 1.9 1.7 4.3 1.5 8.9 1 13.5-2.4 2.2-4.8 4.5-7.4 6.6l-0.2 0.5c-22.3-0.1-44.7 0.2-67.1 0v-2c-0.8 0.3-2.3 1-3.1 1.3l0.3-2.1q-3.5-0.2-7.1-0.4l0.4-3.7-2.3 4.4 0.9-3.9c-0.9 0-2.7 0-3.6 0-0.1-0.8-0.1-2.4-0.1-3.2-0.8 0.1-2.4 0.4-3.2 0.5l0.2-2.2-2.2 0.2c0.1-0.8 0.3-2.3 0.4-3-0.9-0.1-2.6-0.3-3.4-0.4 0.1-0.8 0.2-2.4 0.3-3.1l-2 0.2 0.4-2.1h-2c0.1-0.7 0.4-2.2 0.5-2.9l-1.4-0.1c-0.9-2.2-1.8-4.4-2.7-6.6l-1.4-0.2c0.1-0.7 0.4-2.2 0.6-2.9l-2.2-0.3c0.1-0.7 0.4-2.2 0.5-2.9l-2.2-0.3c0.2-0.8 0.5-2.3 0.6-3l-2.2-0.3c0.1-0.7 0.4-2.2 0.6-2.9l-1.4-0.2c-0.9-2.2-1.8-4.4-2.6-6.5l-0.5-0.2q-1.8-3.8-3.9-7.5c0-0.5 0.1-1.5 0.1-2.1l-2-0.3c0.2-0.7 0.5-2.1 0.6-2.8l-1.3-0.3q-1.7-3.9-3.7-7.7c0-0.5 0-1.4 0-1.9l-2.1-0.3c0.2-0.7 0.4-2.2 0.5-2.9l-1.2-0.2c-0.9-2-1.8-3.9-2.7-5.9q-1-2.8-1.9-5.6l-0.7 0.2c-0.2-1-0.5-3-0.7-4-1.1-2.9-1.5-6-1.9-9.1l-0.7 0.1q-0.2-8.3 0-16.5l0.9 0.2c0.2-3 0.5-6 0.9-8.9q1.2-2.5 2.4-4.9c0.9-2.5 1.8-5 2.6-7.5h1.5c-0.2-0.8-0.6-2.3-0.8-3l2.2-0.3c-0.1-0.7-0.3-2.2-0.4-3l2.2-0.2c-0.1-0.8-0.4-2.3-0.6-3l2.2-0.3c-0.1-0.8-0.4-2.3-0.5-3l2.3-0.3c-0.2-0.7-0.6-2.3-0.7-3l2.2-0.2c-0.2-0.8-0.4-2.3-0.5-3l2.1-0.3c-0.1-0.8-0.4-2.3-0.6-3l2.3-0.3c-0.2-0.8-0.5-2.3-0.7-3l2.3-0.3c-0.2-0.7-0.5-2.2-0.7-2.9l2.2-0.3c-0.2-0.7-0.4-2.2-0.5-3l2.2-0.3c-0.1-0.7-0.4-2.2-0.6-3l2.3-0.3c-0.2-0.7-0.5-2.2-0.6-2.9l2.1-0.4c-0.1-0.7-0.3-2.1-0.4-2.8l2.1-0.3c-0.2-0.8-0.5-2.2-0.7-3l2.3-0.4c-0.1-0.7-0.3-2.2-0.5-2.9l2.1-0.3c-0.1-0.7-0.4-2.2-0.6-3l2.3-0.2c-0.1-0.8-0.4-2.3-0.6-3l2.4-0.3-0.8-2.8c0.6 0 1.7-0.1 2.2-0.2l-0.5-2 2.2 0.1c-0.2-0.8-0.5-2.2-0.6-2.9l2.2 0.1-0.4-2.2 1 0.4c0.7-0.6 2.1-1.8 2.8-2.4l-0.9-1h2.2l-0.1-1.9c0.4 0 1.3-0.1 1.7-0.2 2.1-1.5 4.3-2.7 6.6-3.8l-0.3-2.1c0.4 0.3 1.3 1 1.7 1.3 2.8-1.1 5.7-1.6 8.6-2.1z"/><path class="a" d="m327.8 164.6c5-0.4 10.1-0.5 15.1-0.2l-0.6 1.7c1 0 3.1 0.2 4.1 0.2q1.3 2.9 2.6 5.7c0.2 2.7 0.4 5.3 0.4 7.9q0 78.3 0.1 156.6c-0.3 12.3 0.3 24.6-0.5 36.9l-1.9-0.3 0.5 1.8-0.4 0.9q-3.3 1.8-6.7 3.6c-3.7 0-7.5 0-11.3 0.1l0.2-2c-0.7 0.3-2.2 0.9-3 1.1l0.4-2.4-1.8 0.5c-1.2-3-2.3-6.1-3.2-9.2 0-27.5 0.1-54.9-0.3-82.3-26.5-0.1-53 0-79.5-0.1-0.4 0.9-1.3 2.8-1.8 3.8-0.1 27.3 0.3 54.6-0.3 81.8-1 8.1-10.6 9.1-17.1 8.8q-3-1.1-6-2.1l0.9-1.6-2.4 1 0.7-2.2-1.9 0.2c-0.1-1.2-0.3-3.7-0.4-5l-1.2 0.2c0.2-54.7 0-109.4 0.1-164 0.1-12.6-1-25.3 1.8-37.7 0.8-0.2 2.3-0.7 3-0.9l-0.2-2c0.7 0.3 2.2 0.9 3 1.2l-0.1-2.2c4.6-0.2 9.2-0.2 13.8 0.1l-0.6 2.1c0.8-0.3 2.3-0.8 3.1-1.1l0.2 2.4 2-0.1c0.1 0.4 0.1 1.3 0.1 1.7 2 4.9 1.5 10.3 1.5 15.4 0 24.2 0.1 48.4 0 72.6 27.2 0.4 54.4 0.1 81.5 0.1 0.1-25.3 0-50.6 0-75.9-0.1-4.2 0.9-8.4 1.7-12.5l1.7 0.2c-0.1-0.8-0.2-2.4-0.2-3.3 0.8 0.1 2.4 0.3 3.2 0.4z"/><path fill-rule="evenodd" class="a" d="m627.7 164.2c31.3-0.2 62.6-0.1 94-0.1 5.9-0.3 11.5 1.8 17.3 2.5l-0.1 1.6 3.8-0.9-2.9 2c1.3 0.1 4.1 0.2 5.5 0.2 0 0.8 0 2.3 0 3.1 0.8-0.1 2.5-0.2 3.4-0.2l-0.2 2.1c0.7-0.1 2.3-0.1 3.1-0.1 0 0.8 0.1 2.4 0.1 3.2l2.1-0.3-0.5 2 2.1-0.2c0 0.8-0.1 2.3-0.1 3.1 0.6 0.1 1.7 0.2 2.3 0.3 0.5 1 1.5 2.9 2 3.8 1.2 3.3 2.2 6.6 3.4 9.9 0.9 16.3 0.5 32.7 0.5 49-0.2 7.1 0.4 14.2-0.9 21.2-0.8 2.1-1.6 4.2-2.3 6.3-0.9 1.9-1.8 3.8-2.6 5.7l-0.6 0.1c-1.4 2.2-2.9 4.4-4.3 6.6-0.6 0-1.8 0.1-2.4 0.1 0 0.6-0.1 1.6-0.2 2.2q-2.3 1.9-4.5 3.9c-0.6 0-1.7 0.1-2.2 0.1l0.1 1.3c-1.1 0.6-3.2 1.8-4.3 2.4-0.6-0.4-1.6-1.1-2.2-1.5l0.5 2.5c-5.4 0.4-10.6 1.8-15.9 1.9-22.5 0.1-44.9-0.2-67.3 0.1-0.2 22.6 0 45.2-0.1 67.8 0.1 2.9-0.6 5.8-1.9 8.4 0 0.4 0 1.1 0 1.4q-3.5 1.9-7.1 3.8c-4.6 0.2-9.2-0.3-13.6-1.7-5.3-5.4-4.3-13.2-4.3-20.1 0.1-7.6 0-15.2-0.7-22.8 1.6-10.3-0.3-20.7 0.1-31 0-31.6-0.1-63.1 0-94.6q0-4.1 0-8.1c0.3-12.4-0.9-24.8 0.9-37zm28.4 29.7l-1.8-0.3c0 24.6 0 49.2-0.1 73.8h1.6c-0.2 0.8-0.5 2.2-0.7 3 23.7 0.1 47.4-0.1 71.1 0l-0.9-1.5c1.1-0.1 3.4-0.4 4.5-0.5q2.5-2.8 5.2-5.6c1.7-14.5 0.5-29.1 0.8-43.7-0.2-6.7 1-13.8-1.7-20.1 0-0.5 0.1-1.4 0.1-1.8l-1.2 0.2c-0.7-0.7-2.1-2-2.7-2.6l0.3-1.5c-0.5 0.1-1.4 0.4-1.8 0.5q-3.4-1.7-7.1-1.7c-22.2 0-44.5 0-66.7 0z"/><path fill-rule="evenodd" class="a" d="m479.7 166c0.8 0.1 2.4 0.2 3.2 0.3l-0.2-1.9c3.8-0.1 7.7-0.1 11.6 0l0.2 2.3c0.7-0.3 2.1-0.8 2.8-1.1l-0.2 2.3 2.2 0.1c-0.1 0.7-0.3 2.1-0.4 2.9l2.2 0.3c-0.1 0.5-0.2 1.4-0.3 1.9 1 2.3 1.9 4.6 2.9 6.9q0.3 2.4 0.6 4.7c1.4 3.8 2.5 7.7 3.6 11.6 1.2 4 2.4 8.1 3.2 12.2l0.6-0.1c0.4 2.4 0.9 4.9 1.5 7.3q0.8 2.6 1.7 5.1c0.8 3.2 1.8 6.4 2.6 9.7 1.2 3.8 2.4 7.5 3.5 11.3 1.2 4.4 2.4 8.8 3.6 13.1q0.8 2.6 1.7 5.2 0.4 2.4 0.8 4.8c0.8 2.1 1.5 4.2 2.3 6.3q0.5 2.5 1.1 5.1c0.8 2.7 1.6 5.3 2.4 8q0.7 2.5 1.5 4.9c1.1 3.8 2.2 7.6 3.2 11.5 0.6 2 1.2 4.1 1.9 6.2q0.7 2.6 1.4 5.2c0.9 3.2 1.9 6.4 2.8 9.7q1.7 5.6 3.2 11.4c1.9 6.2 3.7 12.5 5 18.8l0.9-0.2q0.2 3.3 0.5 6.7l1-0.3c0.3 1 0.7 3 0.9 4 1.9 4.2 0.9 8.6-0.9 12.6l-1.7-0.3 0.2 2.3c-0.8-0.2-2.3-0.5-3-0.7l-0.3 2.4c-0.7-0.2-2.1-0.5-2.8-0.6v1.5c-1.6 0-4.6 0-6.1 0q-2.4-1-4.8-1.9-1.9-1.8-3.8-3.5l0.2-1.1-1.4 0.2c-0.9-2.5-1.8-5-2.7-7.4-0.8-2.2-1.5-4.4-2.3-6.6q-0.6-2.3-1.1-4.5-0.9-2.6-1.7-5.2-0.8-2.4-1.4-4.9-0.9-2.5-1.6-5-1-2.9-1.8-5.8l-1.5 0.5 0.9-1.9c-19.5 0.2-39 0.2-58.5 0.2q-1.7 4.4-3.4 8.8c-1.5 5.5-3.3 10.9-5.1 16.3q-0.7 2.4-1.5 4.9c-0.8 3-1.8 6.1-2.6 9.1l-1.6-0.4 0.8 2.1-2.1-0.1c0 0.8 0 2.4 0 3.1-0.8 0-2.4 0-3.2-0.1l-0.1 2.1c-0.4 0-1.3 0-1.8 0-3.5 1.5-7.3 1.6-10.7 0-0.5 0-1.5 0-1.9 0l-0.1-2.1c-0.7 0-2.1 0.1-2.8 0.1-3.7-5.6-2.7-12.4-1.1-18.6q0.9-2.4 1.8-4.9c0.8-3.3 1.8-6.5 2.6-9.8q1.8-5.7 3.4-11.4 0.7-2.5 1.4-5.1c0.7-2 1.3-4.1 1.9-6.2q0.7-2.5 1.4-5.1 0.9-2.4 1.7-4.8c0.7-2.8 1.4-5.5 2.1-8.2q0.9-2.5 1.9-5 0.4-2.8 0.7-5.7l0.7 0.3c1.3-5.9 3.2-11.6 4.8-17.4 0.7-2.1 1.3-4.3 2-6.4 0.2-0.9 0.4-2.5 0.6-3.4 1.3-3.7 2.5-7.4 3.7-11.2q0.7-2.5 1.3-5.1c0.7-2.1 1.2-4.2 1.7-6.4 0.8-2.2 1.5-4.4 2.3-6.6q0.4-2.4 0.9-4.8c0.8-2.2 1.6-4.4 2.3-6.6 0.6-2.2 1.2-4.4 1.9-6.5 0.1-1 0.4-3.1 0.5-4.2l1.2 0.4q0.3-2.9 0.6-5.8 0.9-2.5 1.8-5.1c1.2-4 2.4-8.1 3.3-12.3l0.5 0.2c0.7-3.1 1.5-6.2 2.4-9.2 1-2.8 2-5.6 3.1-8.4-0.1-0.4-0.4-1.3-0.5-1.8l2-0.2-0.3-2 2 0.3c0-0.8 0-2.5 0.1-3.3zm5.8 73.4l-0.5-0.1q-0.7 3.1-1.6 6.1-0.5 2.2-1.1 4.5c-0.8 2.2-1.5 4.5-2.2 6.8-0.6 2.1-1 4.3-1.6 6.5q-0.9 2.5-1.9 4.9-0.3 2.8-0.6 5.6l-1.2-0.1c0 1-0.2 3.1-0.3 4.2-1 2.6-1.8 5.3-2.7 8.1q-0.7 2.4-1.4 4.9-0.6 2.4-1.3 4.8c-0.8 2.9-1.2 5.9-1.6 8.9 14 0 27.9 0 41.8-0.1q-0.4-3.6-1-7.1c-0.9-2.1-1.6-4.3-2.5-6.4-0.1-1-0.3-3.2-0.4-4.2l-0.9 0.2c-0.8-4.2-1.9-8.4-3.1-12.5-0.9-3.2-1.9-6.5-2.7-9.8-1.5-4.3-2.7-8.6-3.8-13-0.6-2.2-1.3-4.3-2-6.4-0.1-0.9-0.5-2.5-0.6-3.3-1.6-4.3-2.8-8.8-3.8-13.3-0.9 3.6-2.1 7.2-3 10.8z"/><path fill-rule="evenodd" class="a" d="m833.2 164.2c35 0.1 70-0.7 105 0.3l-1.1 1.4q3.6 0.2 7.3 0.4v1.6c0.8-0.2 2.2-0.6 3-0.8l0.2 2.7c0.6-0.2 1.7-0.5 2.3-0.6 2.8 2.5 5.7 4.9 8.6 7.3q2.1 2.9 4.3 5.7l0.4-0.1c0.6 0.8 1.6 2.2 2.2 3 0 0.3 0 0.9 0 1.2 1 2.2 1.9 4.4 2.9 6.5 2.9 16.8 1.3 33.9 1.7 50.8 0.4 8.2-0.6 16.3-1.8 24.4-0.9 2.1-1.7 4.3-2.5 6.4-0.9 1.9-1.8 3.8-2.7 5.7l-1.1-0.1-0.3 0.8q-1.8 2-3.5 4.1l-1.1 0.1 0.4 1.9-2.2-0.4 0.7 1.1c-0.7 0.7-1.9 2-2.6 2.7l-1.1-0.7v2.4c-0.8-0.2-2.3-0.6-3.1-0.8l0.4 2.5-2.1-0.9 0.2 1.9c-1.4 0-4.2 0.1-5.6 0.1l1 1.2c-3.7 0.6-7.2 1.9-10.9 1.9-23.7 0.1-47.4 0-71.1 0.1-0.5 23.1 0 46.1-0.3 69.2-0.7 2.5-1.2 5.2-1.8 7.8l-0.4-0.3c-0.7 0.5-2.1 1.6-2.8 2.2l0.8 0.7c-5.3 1.5-11 3-16.3 0.8-0.3-0.1-0.8-0.1-1.1-0.2-1-0.7-3.1-2.1-4.1-2.8 0.1-0.6 0.2-1.7 0.2-2.3l-1.7 0.1c-0.8-69.7-0.2-139.3-0.3-209zm27.8 106.2c24.1 0 48.2 0.3 72.3-0.2l-0.5-2.1c0.7 0.2 2.3 0.8 3 1.1l0.2-2.2c0.7 0 2 0 2.6 0.1 1.4-3.4 2.6-6.8 3.6-10.3-0.2-17.5 1-35.2-0.6-52.6q-0.5-2.8-0.9-5.8l-1.6 0.3c0.1-0.8 0.3-2.4 0.4-3.1-0.9-0.1-2.6-0.2-3.5-0.2l0.1-2.3c-0.8 0.3-2.3 0.7-3 0.9l0.1-1.7c-24.1-0.4-48.3-0.2-72.4-0.3 0.1 26.2-0.3 52.3 0.2 78.4z"/><path class="a" d="m1136.6 164.3c43-0.3 86-0.4 129 0l-0.4 1.6c1.3 0.1 3.8 0.4 5 0.5 0 0.7-0.1 2.1-0.2 2.8l2.3 0.3c0 0.5-0.1 1.4-0.1 1.8 1.5 4 1.4 8.3 0.5 12.3-0.2 0.3-0.6 0.9-0.7 1.2-0.6 1.1-1.7 3.2-2.3 4.2-0.7 0-2-0.1-2.7-0.2l-0.2 2.4c-0.8-0.3-2.3-1-3.1-1.4l0.6 2.2c-33.3 0.2-66.6 0.1-99.9 0q-0.1 32.8-0.1 65.5c14.8 0.3 29.5 0.2 44.3 0.1l-0.3 1.2c1.2 0 3.7 0.1 5 0.2l-0.3 1.8c0.9 0.1 2.6 0.1 3.4 0.1-0.1 0.8-0.2 2.4-0.3 3.2l1.9-0.3c0.4 5 0.6 10.1-0.1 15.1q-2.1 2.3-4.1 4.6c-0.5 0-1.5-0.1-2-0.1v1.6c-15.8 0.4-31.6 0.1-47.3 0.2-0.1 22.2-0.3 44.5 0 66.8 33.7 0.1 67.3-0.1 101 0.1l-0.2 0.8c2.1 0.9 4.2 2 6.3 3l0.1 0.9c1.8 5.2 2.5 10.8 0.4 16 0 0.5 0.1 1.5 0.1 2l-1.2-0.4c-0.7 0.7-2 2-2.6 2.6l0.6 1.1c-1.3 0-4 0.1-5.3 0.1l0.4 1.3c-42.2-0.1-84.3 0-126.4-0.1l0.8-1.6-1.9 0.7c0.2-71.4 0-142.8 0-214.2z"/><path class="b" d="m1039.9 209.7c6.2-3.6 13.9-2.6 20.8-2.5 2.4 0.7 4.7 1.4 7.1 2.1 0.9 4.6 1.7 9.2 2.3 13.8-1.3 0.2-3.9 0.6-5.2 0.8 1.3 0.2 4 0.6 5.3 0.8-0.8 3.2-1.7 6.4-2.5 9.6-9.1 3.5-19.9 5.7-28.7 0.3-1.5-8.1-3.8-17.4 0.9-24.9z"/><path class="b" d="m1017.5 267.4q2.6-2.6 5.1-5.2c14.6-0.4 29.1-0.2 43.6 0 4.2 7.2 3.8 15.6 3.9 23.5 0.2 7.1 1.1 14.2 0.3 21.3-1.1 10.4 0.8 20.7 0.7 31.1-0.1 6.8 0.2 13.6 0.4 20.4 9.2 0.1 18.5-0.7 27.4 1.9 0.2 0.8 0.5 2.4 0.6 3.2 4.5 3.1 2 8.2 1 12.4-3.8 1.8-7.7 3.9-12 3.7-20.1 0.1-40.2 0-60.3 0.1-3.4 0.4-6.3-1.4-9.1-3 0-4.5 0-9 0.2-13.4 1.3 0 3.9 0.1 5.2 0.1-0.1-0.9-0.4-2.5-0.5-3.4 8.8-0.2 17.7 0.1 26.4-1.7-0.7-12.2 0.3-24.5-1.3-36.6-0.9-6.6 1.2-13.1 0.7-19.6-0.6-6.9-1.3-13.7-1.2-20.6-9.2 0.3-18.3 0-27.4-1.6q-1.7-1.8-3.5-3.6-0.1-4.5-0.2-9z"/></svg>