<svg version="1.2" xmlns="http://www.w3.org/2000/svg" viewBox="0 0 1947 269" width="1947" height="269"><style>.a{fill:#fff}</style><path class="a" d="m320.5 264v-139.7c0-39.3 32-66.7 70.8-66.7 2.1 0 4.7 0 6.7 0.5v-57.9c-33.1 0-60 14-77.5 34.7v-29.5h-61.1v258.6zm225.5-263.8c-73.9 0-134.4 60-134.4 134.5 0 74 60.5 134.5 134.4 134.5 74.5 0 134.5-60.5 134.5-134.5 0-74.5-60-134.5-134.5-134.5zm-73.4 134.5c0-40.4 33.1-73.5 73.4-73.5 40.4 0 73.5 33.1 73.5 73.5 0 40.3-33.1 73.4-73.5 73.4-40.3 0-73.4-33.1-73.4-73.4zm375.5-134.5c-74 0-134.5 60-134.5 134.5 0 74 60.5 134.5 134.5 134.5 74.5 0 134.5-60.5 134.5-134.5 0-74.5-60-134.5-134.5-134.5zm-73.4 134.5c0-40.4 33.1-73.5 73.4-73.5 40.4 0 73.5 33.1 73.5 73.5 0 40.3-33.1 73.4-73.5 73.4-40.3 0-73.4-33.1-73.4-73.4zm375.5 134.5c38.3 0 72.9-16.1 97.2-41.9l-42.9-43.5c-13.4 15-33.1 24.3-54.3 24.3-40.4 0-73.5-33.1-73.5-73.4 0-40.4 33.1-73.5 73.5-73.5 21.2 0 40.9 9.3 54.3 23.8l42.9-42.9c-24.3-25.9-58.9-41.9-97.2-41.9-74 0-134.5 60-134.5 134.5 0 74 60.5 134.5 134.5 134.5z"/><path class="a" d="m134.4 268.2c38.2 0 72.7-16 96.9-41.8l-42.8-43.3c-13.3 15-32.9 24.2-54.1 24.2-40.2 0-73.1-32.9-73.1-73.1 0-40.2 32.9-73.2 73.1-73.2 21.2 0 40.8 9.3 54.1 23.7l42.8-42.8c-24.2-25.7-58.7-41.7-96.9-41.7-73.6 0-133.9 59.8-133.9 134 0 73.7 60.3 134 133.9 134z"/><path class="a" d="m1508 134.7c0 76 59.5 134.5 137.6 134.5 42.4 0 78.6-15 103.4-42.4l-38.8-38.8c-15.5 17-39.3 25.8-64.1 25.8-38.3 0-67.3-19.6-77.6-51.7h192.4c1.1-10.3 2.6-21.2 2.6-31 0-77.1-50.2-130.9-123.6-130.9-75 0-131.9 58.5-131.9 134.5zm130.8-79.7c34.7 0 62.1 22.8 67.3 59.5h-138.6c5.1-35.7 35.7-59.5 71.3-59.5zm230.2 209v-139.7c0-39.3 32.1-66.7 70.9-66.7 2.1 0 4.6 0 6.7 0.5v-57.9c-33.1 0-60 14-77.6 34.7v-29.5h-61v258.6z"/><path class="a" d="m1273.8 0h62.6v110.5l91.9-110.5h81.2l-109.2 129.2 115.9 139.8h-79.9l-99.9-121.2v121.2h-62.6z"/><path class="a" d="m92 130.3c0.2-12.4 83.9-13.4 83.8-0.2-0.2 23-18.7 41.6-41.8 41.6-23.2 0.1-42.6-18.5-42-41.4z"/></svg>