<svg version="1.2" xmlns="http://www.w3.org/2000/svg" viewBox="0 0 24 24" width="24" height="24"><style>.a{fill:#4a44fe}.b{fill:#fff}</style><path class="a" d="m8.4 2.7c-1.2 0.4-2.2 1.1-3.1 1.9-1 0.9-1.7 1.9-2.3 3-0.5 1.1-0.9 2.3-1 3.5q0 0.2-0.1 0.4 0 0.1-0.2 0.3-0.1 0.1-0.3 0.1-0.2 0.1-0.4 0.1h0.1q-0.3 0-0.5-0.1-0.1-0.1-0.3-0.2-0.1-0.2-0.2-0.4-0.1-0.2 0-0.4c0.2-2.2 1-4.3 2.3-6.1 1.3-1.8 3.1-3.2 5.2-4 2.1-0.8 4.3-1 6.5-0.6 2.2 0.4 4.2 1.4 5.9 2.9v-2.1q0-0.2 0.1-0.4 0.1-0.2 0.2-0.3 0.1-0.1 0.3-0.2 0.2-0.1 0.4-0.1 0.2 0 0.4 0.1 0.2 0.1 0.3 0.2 0.1 0.1 0.2 0.3 0.1 0.2 0.1 0.4v4.1q0 0.4-0.1 0.8-0.2 0.3-0.4 0.6-0.3 0.2-0.6 0.4-0.4 0.1-0.8 0.1h-4.1q-0.2 0-0.4-0.1-0.2-0.1-0.3-0.2-0.1-0.1-0.2-0.3-0.1-0.2-0.1-0.4 0-0.2 0.1-0.4 0.1-0.2 0.2-0.3 0.1-0.1 0.3-0.2 0.2-0.1 0.4-0.1h3.1q-0.7-0.7-1.5-1.3-0.8-0.5-1.7-0.9-1-0.4-1.9-0.6-1-0.2-2-0.2c-1.2 0-2.5 0.2-3.6 0.7z"/><path class="b" d="m23.4 12.1q0.1 0.1 0.3 0.2 0.1 0.2 0.2 0.4 0.1 0.2 0.1 0.4c-0.3 2.2-1.1 4.3-2.4 6.1-1.3 1.8-3.1 3.2-5.2 4-2.1 0.8-4.3 1-6.5 0.6-2.2-0.4-4.2-1.4-5.9-2.9v2.1q0 0.2-0.1 0.4-0.1 0.2-0.2 0.3-0.1 0.1-0.3 0.2-0.2 0.1-0.4 0.1-0.2 0-0.4-0.1-0.2-0.1-0.3-0.2-0.1-0.1-0.2-0.3-0.1-0.2-0.1-0.4v-4.1q0-0.4 0.1-0.8 0.2-0.3 0.4-0.6 0.3-0.2 0.6-0.4 0.4-0.1 0.8-0.1h4.1q0.2 0 0.4 0.1 0.2 0.1 0.3 0.2 0.1 0.1 0.2 0.3 0.1 0.2 0.1 0.4 0 0.2-0.1 0.4-0.1 0.2-0.2 0.3-0.1 0.1-0.3 0.2-0.2 0.1-0.4 0.1h-3.1c1.3 1.4 3 2.3 4.9 2.7 1.8 0.5 3.8 0.4 5.6-0.3 1.8-0.6 3.4-1.8 4.5-3.3 1.2-1.5 1.9-3.3 2.1-5.2q0-0.2 0.1-0.4 0-0.1 0.2-0.3 0.1-0.1 0.3-0.1 0.2-0.1 0.4-0.1 0.2 0 0.4 0.1z"/></svg>