<svg version="1.2" xmlns="http://www.w3.org/2000/svg" viewBox="0 0 128 140" width="128" height="140"><style>.a{fill:none;stroke:#fff;stroke-linecap:round;stroke-width:8}.b{fill:#fff}</style><path class="a" d="m6 5h117.2v128.2l-105.8-14.1z"/><path class="b" d="m37.4 32.3h5.7v16.6h5.9v-16.6h5.7v-4.7h-17.3zm40.6 5.9c0-6.4-4.8-10.9-10.9-10.9-6.1 0-11 4.5-11 10.9 0 6.4 4.9 10.9 11 10.9 6 0 10.9-4.5 10.9-10.9zm-15.8 0c0-3.4 1.8-5.5 4.9-5.5 3 0 4.9 2.1 4.9 5.5 0 3.3-1.9 5.4-4.9 5.4-3.1 0-4.9-2.1-4.9-5.4zm24.4-1.2v-4.6h2.3c1.8 0 2.5 0.9 2.5 2.3 0 1.4-0.7 2.3-2.5 2.3zm10.9-2.3c0-4.1-2.6-7.1-7.9-7.1h-8.9v21.3h5.9v-7.2h3c5.4 0 7.9-3.3 7.9-7z"/><path class="b" d="m43.6 96.8h14.1v-44.2h-20.5v12.6h6.4zm19.1-22.8c0 13.3 5.3 22.5 18.1 22.5 12.8 0 18.1-9.1 18.2-22.4 0-13.3-5.4-22.5-18.2-22.5-12.8 0-18.1 9.2-18.1 22.4zm23 0.1c0 5.5-0.5 9.7-4.9 9.7-4.4 0-4.9-4.2-4.9-9.8 0-5.5 0.5-9.7 4.9-9.7 4.4 0 4.9 4.3 4.9 9.8z"/></svg>