<svg version="1.2" xmlns="http://www.w3.org/2000/svg" viewBox="0 0 24 24" width="24" height="24"><style>.a{opacity:.8;fill:#1f2326;stroke:#fff;stroke-linecap:square;stroke-width:1.1}.b{fill:#fff}</style><path class="a" d="m12 0.6c6.3 0 11.4 5.1 11.4 11.4 0 6.3-5.1 11.4-11.4 11.4-6.3 0-11.4-5.1-11.4-11.4 0-6.3 5.1-11.4 11.4-11.4z"/><path fill-rule="evenodd" class="b" d="m16.5 6.2q0.4 0.2 0.8 0.5 0.3 0.4 0.5 0.8 0.2 0.5 0.2 1v7q0 0.5-0.2 1-0.2 0.4-0.5 0.8-0.4 0.3-0.8 0.5-0.5 0.2-1 0.2h-7q-0.5 0-1-0.2-0.4-0.2-0.8-0.5-0.3-0.4-0.5-0.8-0.2-0.5-0.2-1v-7q0-0.5 0.2-1 0.2-0.4 0.5-0.8 0.4-0.3 0.8-0.5 0.5-0.2 1-0.2h7q0.5 0 1 0.2zm-0.5 6.3h1v-1h-1zm1-2v-1h-1v1zm-8 1h6v-4.5h-6zm-1 0h-1v1h1zm0-2h-1v1h1zm-1 5h1v-1h-1zm2 2.5h6v-4.5h-6zm7-2.5h1v-1h-1zm0.9-6.5q0-0.2-0.2-0.4-0.1-0.2-0.3-0.3-0.2-0.1-0.4-0.2v1.4h1q0-0.2-0.1-0.5zm-9.3-0.7q-0.2 0.1-0.3 0.3-0.2 0.2-0.2 0.4-0.1 0.3-0.1 0.5h1v-1.4q-0.2 0.1-0.4 0.2zm-0.5 8.7q0 0.2 0.2 0.4 0.1 0.2 0.3 0.3 0.2 0.1 0.4 0.2v-1.4h-1q0 0.2 0.1 0.5zm9.3 0.7q0.2-0.1 0.3-0.3 0.2-0.2 0.2-0.4 0.1-0.3 0.1-0.5h-1v1.4q0.2-0.1 0.4-0.2z"/></svg>