<svg version="1.2" xmlns="http://www.w3.org/2000/svg" viewBox="0 0 30 30" width="30" height="30"><style>.a{fill:none;stroke:#fff;stroke-width:2}.b{fill:#fff}</style><path class="a" d="m9 28c-0.7 0-1.4-0.4-1.8-1.1l-5.9-10.9c-0.4-0.6-0.4-1.4 0-2.1l6-10.8c0.3-0.7 1-1.1 1.7-1.1h12c0.7 0 1.4 0.4 1.8 1.1l5.9 10.9c0.4 0.6 0.4 1.4 0 2.1l-6 10.8c-0.3 0.7-1 1.1-1.7 1.1z"/><path class="b" d="m24.1 14q0.2 0.5 0.2 0.9 0 0.5-0.2 1-0.3 0.4-0.7 0.7l-5.6 3.9q-0.5 0.3-1 0.4-0.6 0-1.1-0.2-0.5-0.3-0.8-0.8-0.3-0.5-0.3-1v-7.9q0-0.6 0.3-1 0.3-0.5 0.8-0.8 0.5-0.2 1.1-0.2 0.5 0 1 0.4l5.6 3.9q0.4 0.3 0.7 0.7zm-10.7-2.9q0.1 0.1 0.1 0.2 0 0 0 0.1 0 0.1 0 0.1v6.8q0 0.1 0 0.2 0 0.1 0 0.1 0 0.1-0.1 0.2 0 0 0 0.1-0.1 0-0.1 0.1 0 0 0 0-0.1 0.1-0.1 0.1 0 0-0.1 0 0 0.1 0 0.1l-2 1.3q-0.4 0.3-1 0.4-0.5 0-1-0.2-0.5-0.3-0.8-0.8-0.3-0.5-0.3-1v-7.9q0-0.6 0.3-1 0.3-0.5 0.8-0.8 0.5-0.2 1-0.2 0.6 0 1 0.4l2 1.3q0 0 0 0 0.1 0.1 0.1 0.1 0 0 0.1 0.1 0 0 0 0 0 0.1 0.1 0.1 0 0.1 0 0.1z"/></svg>